<?xml version="1.0" encoding="utf-8"?>
<!-- Generator: Adobe Illustrator 24.1.2, SVG Export Plug-In . SVG Version: 6.00 Build 0)  -->
<svg version="1.1" id="Layer_1" xmlns="http://www.w3.org/2000/svg" xmlns:xlink="http://www.w3.org/1999/xlink" x="0px" y="0px"
	 viewBox="0 0 1409.24 394.25" xml:space="preserve">
<g>
	<path fill="#ED1C24" d="M209.59,374.56H95.49c-42.23,0-76.47-34.24-76.47-76.47V163.45c0-81.96,66.44-148.4,148.4-148.4h144.21
		c42.23,0,76.47,34.24,76.47,76.47v104.52C388.1,294.64,308.18,374.56,209.59,374.56z"/>
	<g>
		<path fill="#00A651" d="M343.3,226.63c0.28,37.2-22.19,76.35-52.93,94.61c-32.8,19.47-68.15,20.5-105.03,20.5
			c-0.06,0-0.12,0-0.18-0.01c-1.22-0.1-2.39-0.2-3.53-0.31c-4.16-0.32-8.22-0.81-12.17-1.47c-1.28-0.19-2.4-0.37-3.34-0.52
			c-0.36-0.07-0.68-0.14-1.01-0.18c-0.61-0.11-1.15-0.22-1.51-0.29c-0.61-0.11-0.9-0.18-0.9-0.18
			c-65.75-13.99-98.88-72.46-98.88-140.84c0-86.81,50.58-150.07,144.92-150.07c45.13,0,77.38,13.61,98.52,32.85
			c25.93,23.6,0.36,66.16-32.4,53.67c-5.64-2.15-11.15-4.86-16.63-8.07c-12.19-7.14-24.19-15.26-37.93-18.52
			c-16.32-3.88-34.44-0.65-47.21,10.47c-12.91,11.24-18.64,28.51-21.39,44.9c-1.77,10.53-2.38,21.23-2.38,31.9
			c0,25.34,4.36,50.25,16.44,67.05c9.26,12.83,23,20.94,42.83,20.94c19.2,0,31.13-6.47,38.42-15.27
			c21.19-25.61-16.77-42.27-20.03-65.92c-3.56-25.82,23.81-49.07,48.32-49.07c19.77,0,38.76,10.01,51.18,25.26
			C338.06,192.25,343.17,209.23,343.3,226.63z"/>
	</g>
</g>
<g>
	<g>
		<path d="M523.34,267.89c-21.18,0-39.68-4.81-55.51-14.44c-15.83-9.63-28.13-23.05-36.9-40.27c-8.77-17.22-13.16-37.38-13.16-60.48
			c0-22.89,4.49-43.16,13.48-60.8c8.98-17.65,21.87-31.44,38.66-41.39c16.79-9.95,36.63-14.92,59.52-14.92
			c26.09,0,47.81,6.26,65.13,18.77c8.12,5.86,14.87,12.79,20.26,20.79c9,13.35-0.74,31.35-16.84,31.35h0
			c-7.3,0-14.06-3.92-17.59-10.3c-3.49-6.32-8.34-11.55-14.55-15.69c-9.31-6.2-21.45-9.3-36.42-9.3c-15.19,0-28.24,3.26-39.14,9.79
			c-10.91,6.53-19.2,15.94-24.87,28.24c-5.67,12.3-8.5,26.9-8.5,43.8c0,16.9,2.89,31.44,8.66,43.64
			c5.78,12.19,13.9,21.45,24.39,27.75c10.48,6.31,22.78,9.46,36.9,9.46c20.96,0,36.79-5.88,47.49-17.65
			c10.69-11.76,17.01-27.06,18.93-45.88h-43.48c-8.06,0-14.6-6.54-14.6-14.6v0c0-8.06,6.54-14.6,14.6-14.6h70.92
			c6.28,0,11.38,5.09,11.38,11.38v92.87c0,10.29-8.35,18.64-18.64,18.64h0c-9.62,0-17.66-7.32-18.56-16.9l-1.3-13.9
			c-4.92,7.27-10.59,13.53-17.01,18.77c-6.42,5.24-13.96,9.2-22.62,11.87C545.32,266.55,535.1,267.89,523.34,267.89z"/>
		<path d="M735.08,267.89c-16.26,0-30.96-3.21-44.12-9.63c-13.16-6.42-23.64-16.25-31.44-29.52c-7.81-13.26-11.71-29.94-11.71-50.05
			v-120c0-10.63,8.62-19.25,19.25-19.25h0c10.63,0,19.25,8.62,19.25,19.25v120.32c0,12.19,1.98,22.25,5.94,30.16
			c3.96,7.92,9.68,13.85,17.17,17.81c7.49,3.96,16.25,5.94,26.31,5.94c10.27,0,19.04-1.98,26.31-5.94
			c7.27-3.96,12.94-9.89,17.01-17.81c4.06-7.91,6.1-17.97,6.1-30.16V58.7c0-10.63,8.62-19.25,19.25-19.25h0
			c10.63,0,19.25,8.62,19.25,19.25v120c0,20.11-4.01,36.79-12.03,50.05c-8.02,13.27-18.72,23.1-32.09,29.52
			C766.15,264.68,751.34,267.89,735.08,267.89z"/>
		<path d="M906.89,244.95V70.57h-50.53c-8.59,0-15.56-6.97-15.56-15.56v0c0-8.59,6.97-15.56,15.56-15.56h139.25
			c8.59,0,15.56,6.97,15.56,15.56v0c0,8.59-6.97,15.56-15.56,15.56h-50.54v174.39c0,10.54-8.55,19.09-19.09,19.09h0
			C915.44,264.04,906.89,255.5,906.89,244.95z"/>
		<path d="M1023.51,241.28L1023.51,241.28c0-4.41,1.28-8.72,3.69-12.42l102.2-157.01h-88.72c-8.95,0-16.2-7.25-16.2-16.2v0
			c0-8.95,7.25-16.2,16.2-16.2h110.58c12.56,0,22.74,10.18,22.74,22.74v0c0,4.42-1.29,8.75-3.72,12.46l-102.81,157h90.96
			c8.95,0,16.2,7.25,16.2,16.2v0c0,8.95-7.25,16.2-16.2,16.2h-112.16C1033.7,264.04,1023.51,253.85,1023.51,241.28z"/>
		<path d="M1278.6,267.89c-22.03,0-41.29-4.86-57.75-14.6c-16.47-9.73-29.36-23.31-38.66-40.75c-9.3-17.43-13.96-37.7-13.96-60.8
			c0-22.89,4.65-43.05,13.96-60.48c9.31-17.43,22.19-31.07,38.66-40.91c16.47-9.84,35.72-14.76,57.75-14.76
			c21.82,0,41.01,4.92,57.59,14.76c16.57,9.84,29.52,23.48,38.82,40.91c9.3,17.44,13.96,37.6,13.96,60.48
			c0,23.1-4.65,43.37-13.96,60.8c-9.31,17.44-22.25,31.02-38.82,40.75C1319.61,263.03,1300.41,267.89,1278.6,267.89z M1278.6,233.24
			c14.12,0,26.58-3.26,37.38-9.79c10.8-6.52,19.14-15.88,25.03-28.08c5.88-12.19,8.82-26.74,8.82-43.64
			c0-16.9-2.94-31.44-8.82-43.64c-5.89-12.19-14.23-21.55-25.03-28.08c-10.8-6.52-23.26-9.79-37.38-9.79
			c-14.33,0-26.85,3.26-37.54,9.79c-10.7,6.53-18.99,15.88-24.87,28.08c-5.89,12.19-8.82,26.74-8.82,43.64
			c0,16.9,2.94,31.44,8.82,43.64c5.88,12.19,14.17,21.55,24.87,28.08C1251.75,229.98,1264.26,233.24,1278.6,233.24z"/>
	</g>
	<g>
		<path d="M689.67,337.02v-51.3h31.88v6.01H697v16.64h20.59v5.86H697v22.79H689.67z"/>
		<path d="M743.98,337.9c-3.52,0-6.63-0.81-9.34-2.42c-2.71-1.61-4.84-3.86-6.38-6.74c-1.54-2.88-2.31-6.25-2.31-10.11
			c0-3.86,0.74-7.24,2.23-10.15c1.49-2.91,3.62-5.18,6.38-6.82c2.76-1.64,5.95-2.45,9.56-2.45c3.62,0,6.72,0.81,9.31,2.42
			c2.59,1.61,4.58,3.74,5.97,6.38s2.09,5.57,2.09,8.79c0,0.49,0,1.03,0,1.61c0,0.59-0.05,1.2-0.15,1.83H731.3v-5.13h22.94
			c-0.15-3.03-1.17-5.42-3.08-7.18c-1.91-1.76-4.28-2.64-7.11-2.64c-2,0-3.84,0.45-5.5,1.36c-1.66,0.9-2.98,2.22-3.96,3.96
			c-0.98,1.73-1.47,3.92-1.47,6.56v2.05c0,2.74,0.49,5.03,1.47,6.89c0.98,1.86,2.28,3.27,3.92,4.25c1.64,0.98,3.46,1.47,5.46,1.47
			c2.35,0,4.29-0.51,5.83-1.54c1.54-1.03,2.65-2.42,3.33-4.18h7.33c-0.64,2.25-1.71,4.26-3.22,6.05c-1.51,1.78-3.37,3.19-5.57,4.21
			C749.48,337.38,746.91,337.9,743.98,337.9z"/>
		<path d="M786.41,337.9c-3.52,0-6.63-0.81-9.34-2.42c-2.71-1.61-4.84-3.86-6.38-6.74c-1.54-2.88-2.31-6.25-2.31-10.11
			c0-3.86,0.74-7.24,2.23-10.15c1.49-2.91,3.62-5.18,6.38-6.82c2.76-1.64,5.95-2.45,9.56-2.45c3.62,0,6.72,0.81,9.31,2.42
			c2.59,1.61,4.58,3.74,5.97,6.38c1.39,2.64,2.09,5.57,2.09,8.79c0,0.49,0,1.03,0,1.61c0,0.59-0.05,1.2-0.15,1.83h-30.05v-5.13
			h22.94c-0.15-3.03-1.17-5.42-3.08-7.18c-1.91-1.76-4.28-2.64-7.11-2.64c-2,0-3.84,0.45-5.5,1.36c-1.66,0.9-2.98,2.22-3.96,3.96
			c-0.98,1.73-1.47,3.92-1.47,6.56v2.05c0,2.74,0.49,5.03,1.47,6.89c0.98,1.86,2.28,3.27,3.92,4.25c1.64,0.98,3.46,1.47,5.46,1.47
			c2.35,0,4.29-0.51,5.83-1.54c1.54-1.03,2.65-2.42,3.33-4.18h7.33c-0.64,2.25-1.71,4.26-3.22,6.05c-1.51,1.78-3.37,3.19-5.57,4.21
			C791.91,337.38,789.34,337.9,786.41,337.9z"/>
		<path d="M812.14,337.02v-52.77h7.33v52.77H812.14z"/>
		<path d="M843.87,337.9c-3.22,0-6-0.53-8.32-1.58c-2.32-1.05-4.15-2.49-5.5-4.32c-1.34-1.83-2.16-3.99-2.46-6.49h7.4
			c0.24,1.17,0.72,2.25,1.43,3.22c0.71,0.98,1.69,1.76,2.93,2.35c1.25,0.59,2.75,0.88,4.51,0.88c1.56,0,2.87-0.23,3.92-0.7
			c1.05-0.46,1.83-1.1,2.35-1.91c0.51-0.81,0.77-1.67,0.77-2.6c0-1.37-0.33-2.41-0.99-3.11c-0.66-0.71-1.65-1.28-2.97-1.72
			c-1.32-0.44-2.91-0.81-4.76-1.1c-1.61-0.34-3.22-0.76-4.84-1.25c-1.61-0.49-3.04-1.14-4.29-1.94c-1.25-0.81-2.23-1.8-2.97-2.97
			c-0.73-1.17-1.1-2.64-1.1-4.4c0-2.1,0.55-3.99,1.65-5.68c1.1-1.69,2.7-3.01,4.8-3.96c2.1-0.95,4.57-1.43,7.4-1.43
			c4.1,0,7.4,0.96,9.89,2.89c2.49,1.93,3.98,4.7,4.47,8.32h-7.11c-0.24-1.66-0.99-2.96-2.24-3.88c-1.25-0.93-2.94-1.39-5.09-1.39
			c-2.1,0-3.71,0.43-4.84,1.28c-1.12,0.86-1.69,1.94-1.69,3.26c0,0.88,0.33,1.66,0.99,2.34c0.66,0.69,1.6,1.27,2.82,1.76
			c1.22,0.49,2.74,0.9,4.54,1.25c2.59,0.49,4.91,1.11,6.96,1.87c2.05,0.76,3.7,1.84,4.95,3.26c1.25,1.42,1.87,3.44,1.87,6.08
			c0,2.35-0.6,4.39-1.8,6.12c-1.2,1.73-2.88,3.09-5.06,4.07C849.35,337.41,846.8,337.9,843.87,337.9z"/>
		<path d="M886.15,337.02v-51.3h7.33v45.51h23.45v5.79H886.15z"/>
		<path d="M929.32,293.12c-1.42,0-2.58-0.44-3.48-1.32c-0.9-0.88-1.36-2-1.36-3.37c0-1.32,0.45-2.41,1.36-3.26
			c0.9-0.85,2.06-1.28,3.48-1.28c1.37,0,2.52,0.43,3.44,1.28c0.93,0.86,1.39,1.94,1.39,3.26c0,1.37-0.46,2.49-1.39,3.37
			C931.83,292.68,930.69,293.12,929.32,293.12z M925.65,337.02v-36.94h7.33v36.94H925.65z"/>
		<path d="M958.56,354.02c-3.37,0-6.35-0.43-8.94-1.28c-2.59-0.86-4.59-2.16-6.01-3.92c-1.42-1.76-2.13-3.91-2.13-6.45
			c0-1.32,0.29-2.65,0.88-3.99c0.59-1.34,1.54-2.64,2.86-3.88s3.1-2.33,5.35-3.26l4.1,3.22c-2.49,0.98-4.17,2.11-5.02,3.41
			c-0.85,1.29-1.28,2.53-1.28,3.7c0,1.51,0.44,2.76,1.32,3.74c0.88,0.98,2.1,1.71,3.66,2.2c1.56,0.49,3.3,0.73,5.2,0.73
			c1.95,0,3.63-0.27,5.02-0.81c1.39-0.54,2.48-1.28,3.26-2.24c0.78-0.95,1.17-2.09,1.17-3.41c0-1.66-0.59-3.01-1.76-4.03
			c-1.17-1.03-3.42-1.64-6.74-1.83c-2.74-0.19-5.08-0.48-7.04-0.84c-1.95-0.37-3.59-0.78-4.91-1.25c-1.32-0.46-2.44-1-3.37-1.61
			c-0.93-0.61-1.71-1.23-2.35-1.87v-1.69l7.33-7.48l5.94,2.05l-7.99,7.33l1.54-3.3c0.54,0.39,1.06,0.75,1.58,1.06
			c0.51,0.32,1.17,0.6,1.98,0.84c0.81,0.24,1.92,0.46,3.33,0.66c1.42,0.2,3.25,0.39,5.5,0.59c3.37,0.24,6.08,0.82,8.13,1.72
			c2.05,0.9,3.53,2.14,4.43,3.7c0.9,1.56,1.36,3.47,1.36,5.72c0,2.1-0.57,4.09-1.72,5.97c-1.15,1.88-2.93,3.43-5.35,4.65
			C965.49,353.41,962.37,354.02,958.56,354.02z M958.56,325.66c-3.08,0-5.72-0.6-7.91-1.8c-2.2-1.2-3.87-2.78-5.02-4.76
			c-1.15-1.98-1.72-4.21-1.72-6.71c0-2.44,0.59-4.65,1.76-6.63c1.17-1.98,2.83-3.57,4.98-4.76c2.15-1.2,4.79-1.8,7.91-1.8
			c3.08,0,5.7,0.6,7.88,1.8c2.17,1.2,3.82,2.78,4.95,4.76c1.12,1.98,1.69,4.19,1.69,6.63c0,2.49-0.56,4.73-1.69,6.71
			c-1.12,1.98-2.77,3.57-4.95,4.76C964.26,325.06,961.64,325.66,958.56,325.66z M958.56,319.79c2.39,0,4.29-0.62,5.68-1.87
			c1.39-1.25,2.09-3.07,2.09-5.46c0-2.39-0.7-4.21-2.09-5.46c-1.39-1.25-3.29-1.87-5.68-1.87c-2.35,0-4.26,0.62-5.75,1.87
			c-1.49,1.25-2.24,3.07-2.24,5.46c0,2.39,0.72,4.21,2.16,5.46C954.17,319.17,956.12,319.79,958.56,319.79z M964.57,305.87
			l-1.76-5.79h15.17v4.98L964.57,305.87z"/>
		<path d="M985.31,337.02v-52.77h7.33v21.84c1.22-2.1,2.92-3.77,5.09-5.02c2.17-1.25,4.58-1.87,7.22-1.87
			c2.93,0,5.45,0.59,7.55,1.76c2.1,1.17,3.7,2.97,4.8,5.39c1.1,2.42,1.65,5.41,1.65,8.98v21.69h-7.26v-20.96
			c0-3.47-0.72-6.11-2.16-7.92c-1.44-1.81-3.6-2.71-6.49-2.71c-1.95,0-3.71,0.48-5.28,1.43c-1.56,0.95-2.81,2.32-3.74,4.1
			c-0.93,1.78-1.39,3.95-1.39,6.49v19.57H985.31z"/>
		<path d="M1043.64,337.02c-2.35,0-4.37-0.37-6.08-1.1c-1.71-0.73-3.03-1.95-3.96-3.66c-0.93-1.71-1.39-4.03-1.39-6.96v-19.05h-6.38
			v-6.16h6.38l0.95-9.31h6.38v9.31h10.41v6.16h-10.41v19.13c0,2.1,0.44,3.53,1.32,4.29c0.88,0.76,2.39,1.14,4.54,1.14h4.25v6.23
			H1043.64z"/>
		<path d="M1073.69,337.9c-3.52,0-6.63-0.81-9.34-2.42c-2.71-1.61-4.84-3.86-6.38-6.74c-1.54-2.88-2.31-6.25-2.31-10.11
			c0-3.86,0.74-7.24,2.23-10.15c1.49-2.91,3.62-5.18,6.38-6.82c2.76-1.64,5.95-2.45,9.56-2.45c3.62,0,6.72,0.81,9.31,2.42
			c2.59,1.61,4.58,3.74,5.97,6.38s2.09,5.57,2.09,8.79c0,0.49,0,1.03,0,1.61c0,0.59-0.05,1.2-0.15,1.83h-30.05v-5.13h22.94
			c-0.15-3.03-1.17-5.42-3.08-7.18c-1.91-1.76-4.28-2.64-7.11-2.64c-2,0-3.84,0.45-5.5,1.36c-1.66,0.9-2.98,2.22-3.96,3.96
			c-0.98,1.73-1.47,3.92-1.47,6.56v2.05c0,2.74,0.49,5.03,1.47,6.89c0.98,1.86,2.28,3.27,3.92,4.25c1.64,0.98,3.46,1.47,5.46,1.47
			c2.35,0,4.29-0.51,5.83-1.54c1.54-1.03,2.65-2.42,3.33-4.18h7.33c-0.64,2.25-1.71,4.26-3.22,6.05c-1.51,1.78-3.37,3.19-5.57,4.21
			C1079.19,337.38,1076.62,337.9,1073.69,337.9z"/>
		<path d="M1099.42,337.02v-36.94h6.6l0.59,6.96c0.88-1.66,1.97-3.07,3.26-4.21c1.29-1.15,2.86-2.04,4.69-2.67
			c1.83-0.63,3.87-0.95,6.12-0.95v7.69h-2.64c-1.51,0-2.96,0.2-4.32,0.59c-1.37,0.39-2.56,1.03-3.59,1.91
			c-1.03,0.88-1.85,2.06-2.46,3.55c-0.61,1.49-0.92,3.38-0.92,5.68v18.4H1099.42z"/>
	</g>
</g>
</svg>
